<svg version="1.1" id="Layer_1" xmlns="http://www.w3.org/2000/svg" xmlns:xlink="http://www.w3.org/1999/xlink" x="0px" y="0px"
	 width="100%" viewBox="0 0 460 355" enable-background="new 0 0 460 355" xml:space="preserve">
<path fill="#191919" opacity="1.000000" stroke="none" 
	d="
M314.000000,356.000000 
	C209.365280,356.000000 105.230553,356.000000 1.047917,356.000000 
	C1.047917,237.734924 1.047917,119.469810 1.047917,1.102350 
	C154.218018,1.102350 307.436127,1.102350 460.827118,1.102350 
	C460.827118,119.333122 460.827118,237.666550 460.827118,356.000000 
	C412.136505,356.000000 363.318268,356.000000 314.000000,356.000000 
M173.044373,175.058990 
	C173.044373,175.058990 173.052216,174.950302 173.516861,174.849548 
	C173.815598,174.669739 173.969147,174.405518 174.058655,174.057343 
	C174.058655,174.057343 174.059662,173.976212 174.556305,173.846542 
	C174.737534,173.570801 174.918747,173.295074 175.001099,173.023911 
	C175.001099,173.023911 175.005814,173.122772 175.753983,173.177460 
	C177.109863,175.008621 179.060272,176.646957 179.726685,178.701736 
	C184.640015,193.851273 189.278610,209.089767 194.077744,224.276840 
	C194.388016,225.258667 195.314087,226.045929 195.984268,227.058838 
	C195.984268,227.058838 196.119522,227.028656 196.550415,227.584793 
	C199.422272,228.705002 202.519348,231.010361 204.110229,226.042389 
	C204.110229,226.042389 204.031219,226.181808 204.563385,226.034576 
	C204.691772,225.703278 204.820175,225.371964 205.039291,225.011337 
	C205.039291,225.011337 205.010239,224.920532 205.465515,224.603806 
	C205.645874,224.088242 205.826233,223.572678 206.069275,223.051743 
	C206.069275,223.051743 206.055313,222.990402 206.601730,222.719696 
	C207.051300,221.824692 207.500870,220.929703 208.043915,220.013031 
	C208.043915,220.013031 208.022552,219.919479 208.508942,219.629227 
	C208.709396,219.110931 208.909866,218.592621 209.659897,217.686340 
	C219.253799,201.730057 228.819214,185.756378 238.519302,169.864899 
	C239.045837,169.002289 240.698761,168.827225 241.782089,168.705353 
	C241.782089,168.705353 242.010239,169.003769 241.943130,169.917618 
	C242.373184,176.610092 242.803223,183.302551 243.074417,190.920914 
	C243.164627,215.253036 243.207809,239.585587 243.419434,263.916656 
	C243.440079,266.291473 243.744980,269.401123 245.214478,270.890259 
	C249.961029,275.700317 254.933411,280.487152 260.539093,284.193420 
	C266.109344,287.876251 270.174744,286.021637 272.814331,279.835785 
	C274.512268,275.856598 276.091187,271.812927 277.466187,267.711884 
	C286.801605,239.868561 296.068695,212.002365 305.357330,184.143372 
	C306.056244,182.047165 306.751251,179.949677 307.448059,177.852798 
	C307.933655,177.994278 308.419250,178.135757 308.904846,178.277237 
	C308.426483,183.699722 307.711060,189.115219 307.551453,194.547073 
	C307.441498,198.289520 304.589752,202.844940 310.351654,205.953201 
	C313.570648,207.975143 316.789673,209.997086 320.422546,212.557205 
	C325.001221,214.913544 329.611145,217.211609 334.148621,219.644760 
	C337.737793,221.569382 340.737915,220.661209 342.862366,217.569138 
	C345.297729,214.024597 348.006592,210.405136 349.309021,206.399551 
	C352.054474,197.956253 357.558960,194.353210 366.130646,192.805939 
	C380.560547,190.201233 380.729919,189.276077 379.036530,174.426437 
	C378.607819,170.667084 376.920990,168.492416 373.110016,167.550308 
	C362.375397,164.896606 348.548553,171.103119 343.581360,181.023407 
	C342.735229,182.713242 341.820770,184.368851 340.303589,187.241058 
	C340.303589,181.793091 340.238800,177.874557 340.321655,173.959137 
	C340.405975,169.973587 340.635681,165.991119 341.010925,161.166962 
	C341.981262,143.116226 342.951599,125.065498 344.110901,106.461037 
	C344.112396,106.072533 344.113892,105.684021 344.712219,105.003128 
	C344.757355,103.011902 344.802490,101.020668 344.993713,98.580452 
	C344.993713,98.580452 345.051056,98.111778 345.707855,97.678452 
	C346.124298,94.567177 347.002045,91.434776 346.860687,88.349060 
	C346.571075,82.027031 345.734589,75.730064 345.224884,69.171448 
	C345.224884,69.171448 345.013763,69.001381 345.021515,68.415962 
	C344.685150,67.971275 344.348785,67.526588 343.810577,66.400063 
	C339.192596,61.897297 324.239746,59.210468 318.903961,62.214275 
	C317.506073,63.001213 316.291382,64.775414 315.774506,66.352509 
	C313.348297,73.754982 311.214935,81.252983 308.939514,88.705421 
	C304.222839,104.153618 299.445679,119.583450 294.767273,135.043198 
	C292.462097,142.660645 290.321442,150.327896 287.742432,158.618774 
	C284.775574,168.225433 281.808716,177.832108 278.315216,187.996323 
	C277.780426,189.680954 277.245636,191.365585 276.565765,193.149094 
	C276.565765,193.149094 276.661804,193.296021 276.199615,193.908508 
	C275.751343,195.599197 275.303070,197.289886 274.687958,199.194946 
	C274.687958,199.194946 274.724182,199.464157 274.157837,200.111710 
	C273.517273,199.814835 272.353943,199.565109 272.322235,199.213318 
	C272.136993,197.160095 272.217010,195.082932 272.445007,192.261871 
	C272.448456,191.484253 272.451904,190.706635 272.729584,189.038483 
	C272.862549,178.411423 272.995514,167.784378 273.295258,156.338318 
	C273.387177,153.231888 273.479065,150.125458 273.809174,146.116165 
	C274.019318,136.080841 274.229462,126.045509 274.613892,115.376053 
	C274.604340,114.939575 274.594788,114.503090 274.824371,113.166870 
	C274.627441,109.371445 274.430481,105.576027 274.197205,101.882957 
	C274.197205,101.882957 274.300079,101.917793 274.284515,101.275490 
	C273.933289,100.772423 273.582092,100.269356 273.213074,99.834435 
	C273.213074,99.834435 273.283539,99.833817 273.104553,99.295448 
	C272.807770,99.076157 272.510956,98.856873 272.215332,98.771240 
	C272.215332,98.771240 272.348969,98.767937 272.097748,98.249344 
	C271.758728,98.083183 271.419739,97.917015 271.100891,97.880196 
	C271.100891,97.880196 271.230072,97.858932 270.950348,97.349091 
	C270.587097,97.246902 270.223877,97.144714 269.666962,96.883080 
	C269.666962,96.883080 269.416321,96.894325 268.935974,96.400803 
	C268.273438,96.271950 267.610870,96.143097 266.742950,95.847420 
	C266.742950,95.847420 266.478638,95.860245 265.769104,95.394081 
	C262.468079,95.895882 259.167053,96.397682 255.947250,96.930679 
	C255.947250,96.930679 255.977890,96.849228 255.349289,96.874153 
	C254.893082,97.256866 254.436874,97.639587 254.030502,98.030861 
	C254.030502,98.030861 254.022598,97.980896 253.463486,98.207619 
	C253.150345,98.714104 252.837204,99.220589 252.661880,99.734650 
	C252.661880,99.734650 252.666550,99.596703 252.189209,99.885757 
	C252.072708,100.230484 251.956192,100.575203 251.913193,100.924545 
	C251.913193,100.924545 251.870499,100.864517 251.364655,101.199318 
	C251.098846,101.739944 250.833038,102.280571 250.692657,102.781166 
	C250.692657,102.781166 250.650208,102.656517 250.139130,103.048538 
	C249.680557,104.002632 249.222000,104.956734 248.855667,105.892815 
	C248.855667,105.892815 248.836456,105.800804 248.324280,106.150894 
	C248.097168,106.722298 247.870041,107.293701 247.781219,107.840126 
	C247.781219,107.840126 247.754410,107.702187 247.280319,108.028282 
	C247.186920,108.393356 247.093536,108.758423 246.852966,109.257530 
	C246.852966,109.257530 246.892471,109.452629 246.363831,109.822182 
	C246.218689,110.217216 246.073547,110.612251 245.992996,110.990135 
	C245.992996,110.990135 245.967712,110.928276 245.420914,111.307121 
	C244.858414,112.504036 244.295914,113.700951 243.831314,114.879936 
	C243.831314,114.879936 243.811996,114.782295 243.316574,115.157196 
	C243.116241,115.740387 242.915909,116.323586 242.840073,116.879814 
	C242.840073,116.879814 242.811783,116.755608 242.354401,117.026947 
	C242.257645,117.356575 242.160889,117.686203 241.845261,118.320503 
	C241.845261,118.320503 241.769897,118.688004 241.319061,118.985817 
	C241.206909,119.321281 241.094757,119.656746 241.002411,119.999512 
	C241.002411,119.999512 240.987885,119.982552 240.448334,120.385803 
	C239.232056,122.915672 238.015762,125.445541 236.914780,127.942535 
	C236.914780,127.942535 236.881226,127.827423 236.356003,128.161301 
	C236.119095,128.729218 235.882172,129.297150 235.750992,129.837723 
	C235.750992,129.837723 235.721680,129.732529 235.246841,130.125793 
	C235.043350,130.703278 234.839874,131.280777 234.718216,131.845795 
	C234.718216,131.845795 234.703568,131.764328 234.271454,132.041916 
	C234.195618,132.366959 234.119797,132.691986 233.716843,133.465866 
	C233.527908,133.973572 233.338974,134.481277 232.966461,135.046555 
	C232.966461,135.046555 233.023773,135.230194 232.586700,135.507294 
	C232.425552,135.984482 232.264420,136.461685 231.945145,136.993073 
	C231.945145,136.993073 231.998993,137.151321 231.539703,137.450226 
	C231.353729,137.952316 231.167740,138.454422 230.939590,138.966644 
	C230.939590,138.966644 230.956131,139.006760 230.443604,139.430145 
	C229.603775,141.265961 228.763947,143.101776 227.977585,144.968704 
	C227.977585,144.968704 227.929428,144.948700 227.370758,145.308350 
	C226.836807,146.514801 226.302856,147.721252 225.856110,148.909332 
	C225.856110,148.909332 225.836624,148.822372 225.340912,149.192383 
	C224.911484,150.106339 224.482056,151.020279 223.906265,151.987640 
	C223.906265,151.987640 223.959076,152.134216 223.521057,152.446426 
	C223.352890,152.947586 223.184723,153.448730 222.944550,153.973602 
	C222.944550,153.973602 222.967850,154.045776 222.501205,154.371613 
	C222.323044,154.903000 222.144882,155.434402 221.977783,155.988388 
	C221.977783,155.988388 221.952454,155.985428 221.446228,156.305466 
	C221.273392,156.867035 221.100571,157.428589 220.988602,157.988693 
	C220.988602,157.988693 220.949219,157.942276 220.436859,158.282211 
	C220.251053,158.859589 220.065247,159.436981 220.004776,159.983704 
	C220.004776,159.983704 219.974060,159.858398 219.487015,160.030212 
	C219.375641,160.340302 219.264252,160.650375 218.889511,161.237656 
	C218.889511,161.237656 218.880829,161.619904 218.355835,162.016708 
	C217.913055,162.997925 217.470276,163.979141 216.950256,164.982697 
	C216.950256,164.982697 216.972260,165.060013 216.492966,165.380127 
	C216.306702,165.913910 216.120453,166.447678 215.994049,166.967941 
	C215.994049,166.967941 215.932510,166.956894 215.423203,167.293411 
	C214.975769,168.184921 214.528336,169.076431 213.965637,170.010269 
	C213.965637,170.010269 214.007767,170.125610 213.492096,170.502869 
	C212.575867,171.964951 211.659637,173.427032 210.201538,174.832062 
	C209.840805,174.870972 209.480057,174.909882 208.753738,174.375443 
	C207.291199,172.398041 205.421539,170.603104 204.438873,168.410614 
	C200.821899,160.340607 197.498947,152.138824 194.044647,143.976181 
	C194.044647,143.976181 194.054413,143.955002 194.100540,143.122055 
	C192.770859,138.701202 191.441177,134.280350 189.875107,129.371063 
	C189.551437,129.220154 189.227783,129.069244 188.474426,128.318878 
	C186.587723,128.507034 184.701035,128.695190 182.105225,128.952942 
	C175.194702,131.578003 170.819473,136.981522 166.437820,143.038834 
	C166.188553,143.267151 166.073792,143.550049 165.919983,143.914612 
	C165.919983,143.914612 165.946289,144.088257 165.367355,144.343613 
	C164.227188,145.871414 163.087021,147.399216 161.942032,148.975082 
	C161.942032,148.975082 161.974442,148.940384 161.531158,149.066040 
	C161.262634,149.262131 161.134735,149.526199 160.911423,149.922607 
	C160.911423,149.922607 160.864609,150.162750 160.491943,150.225815 
	C160.239029,150.367081 160.135910,150.580795 159.960190,150.933670 
	C159.960190,150.933670 159.963776,151.165833 159.406906,151.415771 
	C158.582489,152.585907 157.758057,153.756042 156.949936,154.982651 
	C156.949936,154.982651 156.985626,154.935944 156.499954,155.061737 
	C156.203476,155.268051 156.048157,155.551620 155.913727,155.913651 
	C155.913727,155.913651 155.914062,156.033920 155.482254,156.134888 
	C155.193710,156.300858 155.065094,156.549515 154.866028,156.928665 
	C154.866028,156.928665 154.867493,157.163971 154.510391,157.242172 
	C154.277512,157.391846 154.184540,157.603210 153.979568,157.956131 
	C153.979568,157.956131 153.965683,158.220062 153.452164,158.455170 
	C153.190155,158.944153 152.928131,159.433136 152.888214,159.992599 
	C152.888214,159.992599 152.958313,159.770401 152.308273,159.853699 
	C152.149765,160.237915 151.991257,160.622131 151.943329,160.866562 
	C151.943329,160.866562 151.803360,160.756210 151.252563,160.994095 
	C150.799088,161.633423 150.345596,162.272751 149.939682,162.966141 
	C149.939682,162.966141 149.993607,162.918442 149.437531,163.031494 
	C149.266159,163.352875 149.094788,163.674255 148.995255,163.988495 
	C148.995255,163.988495 148.988022,163.916656 148.495209,164.015320 
	C148.224518,164.248962 148.092270,164.544479 147.904526,164.931396 
	C147.904526,164.931396 147.898819,165.127518 147.465698,165.228378 
	C147.154755,165.362411 146.998901,165.598907 146.933655,165.934448 
	C146.933655,165.934448 146.937210,165.998932 146.470337,166.127365 
	C146.169464,166.313156 146.013550,166.582794 145.933899,166.935867 
	C145.933899,166.935867 145.935547,167.004517 145.465607,167.139847 
	C145.168015,167.330490 145.004059,167.601898 144.945923,167.953232 
	C144.945923,167.953232 144.934326,167.978561 144.280090,168.159637 
	C143.183105,168.342255 142.086121,168.524872 141.141098,168.930634 
	C141.141098,168.930634 141.363861,168.778122 141.139771,168.009018 
	C140.688354,165.739700 140.242310,163.469315 139.784378,161.201309 
	C138.927383,156.956680 138.441528,152.497955 133.273712,150.964920 
	C128.342865,149.502167 124.469620,151.459503 121.097878,154.765900 
	C118.609558,157.205994 116.357468,159.884979 113.933556,162.393188 
	C109.294334,167.193726 103.761589,169.237167 97.192070,167.282944 
	C93.381508,166.149414 89.701920,164.580765 85.904892,163.395279 
	C80.807671,161.803864 77.459854,163.759460 76.215630,168.955017 
	C75.714470,171.047791 75.057060,173.207626 75.154968,175.305008 
	C75.228210,176.874115 75.975159,178.926437 77.144005,179.850754 
	C89.981979,190.003036 105.100639,189.796417 117.898796,179.534821 
	C119.928360,177.907516 122.044106,176.387680 124.854218,174.263062 
	C125.747093,177.969055 126.356026,180.839355 127.134590,183.662888 
	C129.368423,191.764206 131.670944,199.846573 133.911514,208.044922 
	C133.911514,208.044922 134.019836,208.080536 134.082779,208.580826 
	C134.364288,208.724380 134.645813,208.867920 134.952469,209.094177 
	C134.952469,209.094177 135.035400,209.069748 135.443497,209.563690 
	C136.453522,209.404846 137.463562,209.245987 138.761856,209.211136 
	C138.761856,209.211136 138.990662,208.996368 139.518570,209.049606 
	C139.677338,208.971817 139.836090,208.894028 140.500275,208.863525 
	C140.735550,208.644531 140.970825,208.425522 141.134155,208.185455 
	C141.134155,208.185455 141.154160,208.257706 141.804871,208.200256 
	C142.850983,207.481323 143.897095,206.762375 145.040115,206.070099 
	C145.040115,206.070099 145.067291,205.973343 145.584106,205.890579 
	C145.756180,205.602905 145.928253,205.315247 146.024124,205.013626 
	C146.024124,205.013626 146.010345,205.089874 146.586899,204.993118 
	C146.793579,204.688950 147.000259,204.384766 147.072845,204.142975 
	C147.072845,204.142975 147.135956,204.276733 147.687546,204.201355 
	C148.042130,203.804688 148.396729,203.408020 148.969009,203.014374 
	C148.969009,203.014374 149.020599,202.802841 149.601273,202.621964 
	C150.691483,201.427032 151.781677,200.232117 153.406387,198.753159 
	C153.633453,198.425034 153.860504,198.096909 154.453354,197.715271 
	C154.691513,197.564865 154.784637,197.351135 154.961380,196.987640 
	C154.961380,196.987640 154.975296,196.743561 155.523590,196.485321 
	C156.367126,195.349106 157.210678,194.212875 158.053787,193.046432 
	C158.053787,193.046432 158.039383,193.060577 158.516769,192.902908 
	C158.662109,192.613983 158.807449,192.325058 159.027649,192.026657 
	C159.027649,192.026657 159.018448,191.951782 159.554932,191.704727 
	C159.827225,191.190903 160.099503,190.677078 160.188950,190.137985 
	C160.188950,190.137985 160.165192,190.321030 160.744598,190.128677 
	C160.894653,189.764404 161.044708,189.400131 161.051407,189.050735 
	C161.051407,189.050735 161.066772,189.194046 161.605682,189.025665 
	C161.757767,188.692917 161.909851,188.360168 162.002380,188.014435 
	C162.002380,188.014435 162.040756,188.061798 162.504181,187.934525 
	C162.793198,187.732925 162.923721,187.456573 163.082443,187.067368 
	C163.082443,187.067368 163.054077,186.878937 163.579086,186.649948 
	C163.828247,186.145752 164.077393,185.641556 164.159653,185.098297 
	C164.159653,185.098297 164.121735,185.265472 164.691528,185.088928 
	C164.838593,184.733215 164.985657,184.377487 165.030640,184.047104 
	C165.030640,184.047104 165.056290,184.149109 165.568542,184.008240 
	C165.709457,183.696686 165.850372,183.385147 166.085770,183.062302 
	C166.085770,183.062302 166.075180,182.967743 166.481857,182.843384 
	C166.737473,182.659622 166.844101,182.411789 167.009827,182.028351 
	C167.009827,182.028351 167.010757,181.808334 167.569534,181.566727 
	C168.388107,180.399063 169.206665,179.231400 170.035889,178.047501 
	C170.035889,178.047501 170.050262,178.034546 170.527985,177.911255 
	C170.838104,177.721130 170.987091,177.444336 171.461258,176.822983 
	C171.656296,176.519440 171.851334,176.215912 172.485474,175.802902 
	C172.765518,175.630402 172.915573,175.379990 173.044373,175.058990 
M51.851601,171.391052 
	C53.675045,176.628845 55.667938,177.927994 62.662834,176.762909 
	C64.629364,176.435364 67.125389,174.062195 67.758644,172.103561 
	C68.881805,168.629730 66.764618,166.142654 63.133656,165.271210 
	C56.865486,163.766846 53.591549,165.315308 51.851601,171.391052 
z"/>
<path fill="#EE7E07" opacity="1.000000" stroke="none" 
	d="
M344.115387,105.295517 
	C344.113892,105.684021 344.112396,106.072533 343.848175,107.062714 
	C341.943085,110.377037 340.276672,113.075516 338.665558,115.806610 
	C337.262207,118.185509 335.187378,120.458847 334.689148,123.027122 
	C333.142639,130.999100 328.179108,137.010162 324.033234,143.541473 
	C319.523071,150.646667 315.166901,157.850693 310.811584,165.052734 
	C308.357208,169.111389 306.267639,173.408691 303.596863,177.313385 
	C300.911865,181.238907 297.389191,184.604538 294.822754,188.594482 
	C292.147186,192.754120 290.475372,197.555496 287.835907,201.742996 
	C281.420502,211.920990 274.650574,221.874771 268.123566,231.983505 
	C265.531586,235.997864 263.421814,240.333740 260.706360,244.255859 
	C256.485931,250.351700 251.940292,256.222687 247.500504,262.165070 
	C247.367569,262.342987 246.877151,262.253815 245.084244,262.449646 
	C245.051498,248.545364 245.019028,234.763168 244.991013,220.575851 
	C245.519958,218.312958 245.763885,216.311829 246.625137,214.626114 
	C248.660736,210.641907 248.644821,207.376785 244.228180,204.672150 
	C244.204880,203.165817 244.213409,202.069733 244.590683,201.001831 
	C246.987991,203.329193 249.016571,205.628372 251.395935,208.325134 
	C252.470612,205.991531 252.966461,202.724457 254.861008,201.227112 
	C259.795013,197.327545 261.574219,191.829071 263.524292,186.454514 
	C265.019287,182.334152 267.363434,180.463226 271.688507,181.370987 
	C271.718170,182.263626 271.716736,182.774368 271.579254,183.624298 
	C271.317108,187.033630 271.191010,190.103760 271.083191,193.617020 
	C271.233643,197.409790 271.365814,200.759460 271.497986,204.109116 
	C272.152313,204.157532 272.806671,204.205948 273.461029,204.254364 
	C273.882080,202.657639 274.303131,201.060898 274.724182,199.464157 
	C274.724182,199.464157 274.687958,199.194946 275.037842,198.821381 
	C275.812439,196.730530 276.237122,195.013275 276.661804,193.296021 
	C276.661804,193.296021 276.565765,193.149094 276.906799,192.830872 
	C277.779144,190.821335 278.310486,189.130051 278.841858,187.438766 
	C281.808716,177.832108 284.775574,168.225433 288.181091,158.069153 
	C288.927612,157.129456 289.316742,156.779373 289.531158,156.343384 
	C293.186432,148.910950 296.802124,141.458954 300.487854,134.041748 
	C300.833435,133.346207 301.627167,132.885956 302.150696,132.264160 
	C305.768280,127.967346 309.833893,123.957024 312.860931,119.276115 
	C316.844299,113.116272 319.852203,106.333336 323.619080,100.020950 
	C324.709747,98.193260 326.755127,96.559731 328.736694,95.728897 
	C331.576447,94.538246 332.355469,92.709953 333.211151,89.898689 
	C335.203308,83.353668 337.955078,77.028320 340.653442,70.722801 
	C341.038177,69.823761 342.839081,69.530762 344.241638,68.973145 
	C344.670380,68.993141 344.842072,68.997261 345.013763,69.001381 
	C345.013763,69.001381 345.224884,69.171448 345.190430,69.758125 
	C345.121002,79.600464 345.086029,88.856117 345.051056,98.111778 
	C345.051056,98.111778 344.993713,98.580452 344.760437,99.160980 
	C344.389893,101.592850 344.252625,103.444183 344.115387,105.295517 
z"/>
<path fill="#EF8B07" opacity="1.000000" stroke="none" 
	d="
M266.478638,95.860245 
	C266.478638,95.860245 266.742950,95.847420 267.115143,96.130508 
	C268.130341,96.573845 268.773315,96.734085 269.416321,96.894325 
	C269.416321,96.894325 269.666962,96.883080 269.958618,97.153381 
	C270.576904,97.568764 270.903473,97.713852 271.230072,97.858932 
	C271.230072,97.858932 271.100891,97.880196 271.252167,98.042786 
	C271.718628,98.392899 272.033783,98.580414 272.348969,98.767937 
	C272.348969,98.767937 272.215332,98.771240 272.330414,98.955582 
	C272.724854,99.371223 273.004181,99.602524 273.283539,99.833817 
	C273.283539,99.833817 273.213074,99.834435 273.260773,100.107330 
	C273.639008,100.892754 273.969543,101.405273 274.300079,101.917801 
	C274.300079,101.917793 274.197205,101.882957 274.150146,102.298973 
	C274.263763,106.498863 274.424500,110.282738 274.585205,114.066612 
	C274.594788,114.503090 274.604340,114.939575 274.376770,116.028175 
	C273.779968,118.835030 273.420319,120.989769 273.046906,122.790375 
	C272.809509,121.416260 272.585815,120.396278 272.606598,120.490929 
	C270.232452,122.718529 267.600494,124.931259 265.301300,127.447968 
	C264.052795,128.814590 262.770477,130.616470 262.532013,132.362518 
	C261.189819,142.188873 252.528366,148.416962 250.277908,157.752045 
	C250.188217,158.124054 249.428757,158.286041 249.137741,158.665726 
	C246.680298,161.872025 244.259293,165.106247 241.827347,168.332092 
	C240.698761,168.827225 239.045837,169.002289 238.519302,169.864899 
	C228.819214,185.756378 219.253799,201.730057 209.205139,218.081726 
	C208.507782,218.957916 208.265152,219.438690 208.022552,219.919464 
	C208.022552,219.919479 208.043915,220.013031 207.719666,220.164215 
	C206.948700,221.207062 206.502014,222.098724 206.055313,222.990402 
	C206.055313,222.990402 206.069275,223.051743 205.872742,223.263367 
	C205.454208,223.956848 205.232224,224.438690 205.010239,224.920532 
	C205.010239,224.920532 205.039291,225.011337 204.833923,225.209290 
	C204.426041,225.662811 204.226913,225.920990 204.031219,226.181808 
	C204.031219,226.181808 204.110229,226.042389 203.785034,226.190521 
	C201.013062,226.568649 198.566284,226.798645 196.119522,227.028656 
	C196.119522,227.028656 195.984268,227.058838 195.940201,226.605499 
	C193.911942,217.028671 191.716995,207.941910 190.115250,198.751785 
	C189.781189,196.835098 191.336441,194.338974 192.559067,192.459991 
	C194.376450,189.666901 196.895035,187.330170 198.713470,184.537613 
	C201.396469,180.417374 203.131775,175.427475 209.119324,174.948792 
	C209.480057,174.909882 209.840805,174.870972 210.819153,174.780945 
	C212.293762,173.195084 213.150772,171.660355 214.007767,170.125610 
	C214.007767,170.125610 213.965637,170.010269 214.300232,169.845551 
	C215.067383,168.772858 215.499954,167.864883 215.932526,166.956909 
	C215.932510,166.956894 215.994049,166.967941 216.136536,166.757751 
	C216.510101,166.051712 216.741180,165.555862 216.972260,165.060013 
	C216.972260,165.060013 216.950256,164.982697 217.282532,164.806488 
	C218.036835,163.626816 218.458832,162.623352 218.880829,161.619904 
	C218.880829,161.619904 218.889511,161.237656 219.165894,160.921814 
	C219.624863,160.360580 219.802124,160.111389 219.974060,159.858398 
	C219.974060,159.858398 220.004776,159.983704 220.114990,159.761230 
	C220.466537,159.006592 220.707886,158.474426 220.949219,157.942276 
	C220.949219,157.942276 220.988602,157.988693 221.130798,157.762268 
	C221.499481,157.019043 221.725967,156.502243 221.952454,155.985428 
	C221.952454,155.985428 221.977783,155.988388 222.139847,155.760529 
	C222.523895,155.037018 222.745865,154.541397 222.967834,154.045776 
	C222.967850,154.045776 222.944550,153.973602 223.138977,153.757278 
	C223.541977,153.072052 223.750534,152.603134 223.959076,152.134216 
	C223.959076,152.134216 223.906265,151.987640 224.264023,151.817062 
	C225.026733,150.705109 225.431686,149.763748 225.836624,148.822372 
	C225.836624,148.822372 225.856110,148.909332 226.100235,148.731445 
	C226.872711,147.351929 227.401062,146.150314 227.929428,144.948700 
	C227.929428,144.948700 227.977585,144.968704 228.273895,144.819031 
	C229.365509,142.781830 230.160812,140.894302 230.956131,139.006760 
	C230.956131,139.006760 230.939590,138.966644 231.127579,138.759583 
	C231.543381,138.085464 231.771194,137.618393 231.998993,137.151321 
	C231.998993,137.151321 231.945145,136.993073 232.173584,136.773560 
	C232.609283,136.112762 232.816528,135.671478 233.023773,135.230194 
	C233.023773,135.230194 232.966461,135.046555 233.312500,134.898285 
	C234.106201,134.167145 234.553833,133.584274 234.947083,132.687302 
	C234.829651,132.170227 234.766602,131.967270 234.703568,131.764328 
	C234.703568,131.764328 234.718216,131.845795 234.921814,131.654449 
	C235.324173,130.886246 235.522934,130.309387 235.721680,129.732529 
	C235.721680,129.732529 235.750992,129.837723 235.948700,129.665253 
	C236.391327,128.937668 236.636276,128.382538 236.881226,127.827423 
	C236.881226,127.827423 236.914780,127.942535 237.129761,127.739693 
	C238.559128,125.018753 239.773514,122.500656 240.987885,119.982559 
	C240.987885,119.982552 241.002411,119.999512 241.184418,119.818192 
	C241.500931,119.320587 241.635422,119.004295 241.769897,118.688004 
	C241.769897,118.688004 241.845261,118.320503 242.138794,117.997101 
	C242.558807,117.367668 242.685287,117.061638 242.811783,116.755608 
	C242.811783,116.755608 242.840073,116.879814 243.010239,116.686050 
	C243.390930,115.922287 243.601456,115.352287 243.811981,114.782288 
	C243.811996,114.782295 243.831314,114.879936 244.085175,114.719116 
	C244.881927,113.348297 245.424835,112.138290 245.967712,110.928284 
	C245.967712,110.928276 245.992996,110.990135 246.179382,110.779633 
	C246.541336,110.196960 246.716904,109.824791 246.892471,109.452629 
	C246.892471,109.452629 246.852966,109.257530 247.113052,108.987289 
	C247.500229,108.378769 247.627319,108.040482 247.754425,107.702187 
	C247.754410,107.702187 247.781219,107.840126 247.958618,107.660599 
	C248.369492,106.920990 248.602982,106.360901 248.836456,105.800804 
	C248.836456,105.800804 248.855667,105.892815 249.101730,105.734718 
	C249.781937,104.603256 250.216064,103.629883 250.650208,102.656509 
	C250.650208,102.656517 250.692657,102.781166 250.886627,102.627563 
	C251.343903,101.937477 251.607208,101.401001 251.870499,100.864517 
	C251.870499,100.864517 251.913193,100.924545 252.070251,100.741379 
	C252.373718,100.237701 252.520126,99.917198 252.666534,99.596703 
	C252.666550,99.596703 252.661880,99.734650 252.867218,99.598465 
	C253.389252,98.968491 253.705917,98.474693 254.022598,97.980896 
	C254.022598,97.980896 254.030502,98.030861 254.298752,97.970001 
	C255.037308,97.555840 255.507599,97.202538 255.977890,96.849228 
	C255.977890,96.849228 255.947250,96.930679 256.337311,96.933540 
	C259.977783,96.577682 263.228210,96.218964 266.478638,95.860245 
z"/>
<path fill="#E9780A" opacity="1.000000" stroke="none" 
	d="
M244.986572,220.980988 
	C245.019028,234.763168 245.051498,248.545364 245.084244,262.449646 
	C246.877151,262.253815 247.367569,262.342987 247.500504,262.165070 
	C251.940292,256.222687 256.485931,250.351700 260.706360,244.255859 
	C263.421814,240.333740 265.531586,235.997864 268.123566,231.983505 
	C274.650574,221.874771 281.420502,211.920990 287.835907,201.742996 
	C290.475372,197.555496 292.147186,192.754120 294.822754,188.594482 
	C297.389191,184.604538 300.911865,181.238907 303.596863,177.313385 
	C306.267639,173.408691 308.357208,169.111389 310.811584,165.052734 
	C315.166901,157.850693 319.523071,150.646667 324.033234,143.541473 
	C328.179108,137.010162 333.142639,130.999100 334.689148,123.027122 
	C335.187378,120.458847 337.262207,118.185509 338.665558,115.806610 
	C340.276672,113.075516 341.943085,110.377037 343.753693,107.339584 
	C342.951599,125.065498 341.981262,143.116226 340.726532,161.577316 
	C340.442139,161.987671 340.082153,161.977219 340.059570,161.513428 
	C340.036987,154.597565 340.036987,148.145523 340.036987,141.693466 
	C338.284698,142.313232 337.552368,143.253128 336.967651,144.277283 
	C330.579529,155.466156 324.355011,166.752060 317.756622,177.815094 
	C315.802185,181.091995 311.324066,183.437088 310.621948,186.762299 
	C309.351593,192.778549 310.051361,199.210800 309.928558,205.469360 
	C304.589752,202.844940 307.441498,198.289520 307.551453,194.547073 
	C307.711060,189.115219 308.426483,183.699722 308.904846,178.277237 
	C308.419250,178.135757 307.933655,177.994278 307.448059,177.852798 
	C306.751251,179.949677 306.056244,182.047165 305.357330,184.143372 
	C296.068695,212.002365 286.801605,239.868561 277.466187,267.711884 
	C276.091187,271.812927 274.512268,275.856598 272.814331,279.835785 
	C270.174744,286.021637 266.109344,287.876251 260.539093,284.193420 
	C254.933411,280.487152 249.961029,275.700317 245.214478,270.890259 
	C243.744980,269.401123 243.440079,266.291473 243.419434,263.916656 
	C243.207809,239.585587 243.164627,215.253036 243.333481,190.446564 
	C243.592545,189.972198 243.952118,189.954819 243.964966,190.415375 
	C244.059189,194.241837 244.140579,197.607727 244.221954,200.973633 
	C244.213409,202.069733 244.204880,203.165817 244.178131,205.126251 
	C244.435486,210.987381 244.711029,215.984177 244.986572,220.980988 
z"/>
<path fill="#F39806" opacity="1.000000" stroke="none" 
	d="
M154.087555,197.768799 
	C153.860504,198.096909 153.633453,198.425034 152.800079,198.922256 
	C151.136047,200.328522 150.078323,201.565689 149.020599,202.802856 
	C149.020599,202.802841 148.969009,203.014374 148.620972,203.110016 
	C147.893951,203.562683 147.514954,203.919708 147.135956,204.276733 
	C147.135956,204.276733 147.072845,204.142975 146.933197,204.271378 
	C146.532471,204.629807 146.271408,204.859833 146.010345,205.089874 
	C146.010345,205.089874 146.024124,205.013626 145.874893,205.162170 
	C145.481766,205.507294 145.262299,205.728180 145.067291,205.973343 
	C145.067291,205.973343 145.040115,206.070099 144.656891,206.075745 
	C143.233826,206.806824 142.193985,207.532272 141.154160,208.257706 
	C141.154160,208.257706 141.134155,208.185455 140.853455,208.200409 
	C140.362595,208.233368 140.152405,208.251389 139.765686,208.362793 
	C139.373184,208.617966 139.173691,208.798035 138.990662,208.996368 
	C138.990662,208.996368 138.761856,209.211136 138.184921,209.150208 
	C136.750458,209.082779 135.892929,209.076263 135.035400,209.069763 
	C135.035400,209.069748 134.952469,209.094177 134.799149,208.887177 
	C134.451859,208.464935 134.243195,208.265060 134.019836,208.080536 
	C134.019836,208.080536 133.911514,208.044922 133.895248,207.608826 
	C132.567535,201.838364 131.349487,196.478683 129.913208,191.178146 
	C128.883743,187.378983 129.062241,184.152100 132.003479,181.041473 
	C133.007507,179.979614 133.328476,177.120056 132.621674,175.798431 
	C130.023392,170.940018 130.413101,169.681732 135.914627,168.939774 
	C137.705734,168.698196 139.546051,168.821625 141.363861,168.778107 
	C141.363861,168.778122 141.141098,168.930634 141.328064,169.001709 
	C142.654785,168.708054 143.794556,168.343292 144.934326,167.978546 
	C144.934326,167.978561 144.945923,167.953232 145.125092,167.799957 
	C145.521973,167.439774 145.732391,167.225723 145.935547,167.004517 
	C145.935547,167.004517 145.933899,166.935867 146.130005,166.786377 
	C146.538208,166.432281 146.741913,166.219635 146.937210,165.998932 
	C146.937210,165.998932 146.933655,165.934448 147.122223,165.806564 
	C147.515472,165.504181 147.711487,165.320465 147.898819,165.127518 
	C147.898819,165.127518 147.904526,164.931396 148.156143,164.761139 
	C148.606918,164.371078 148.800339,164.146332 148.988022,163.916656 
	C148.988022,163.916656 148.995255,163.988495 149.141129,163.815811 
	C149.522537,163.401566 149.758072,163.160004 149.993607,162.918442 
	C149.993607,162.918442 149.939682,162.966141 150.195526,162.816650 
	C150.902023,162.030167 151.352692,161.393188 151.803360,160.756210 
	C151.803360,160.756210 151.943329,160.866562 152.058502,160.716064 
	C152.435211,160.300507 152.696762,160.035461 152.958313,159.770401 
	C152.958313,159.770401 152.888214,159.992599 152.975006,159.767166 
	C153.363098,159.101166 153.664383,158.660614 153.965668,158.220062 
	C153.965683,158.220062 153.979568,157.956131 154.215698,157.803101 
	C154.596069,157.492905 154.734619,157.330872 154.867493,157.163971 
	C154.867493,157.163971 154.866028,156.928665 155.125519,156.773880 
	C155.571960,156.433624 155.748306,156.238556 155.914062,156.033920 
	C155.914062,156.033920 155.913727,155.913651 156.136948,155.756042 
	C156.573013,155.381729 156.781494,155.160889 156.985626,154.935944 
	C156.985626,154.935944 156.949936,154.982651 157.263367,154.864731 
	C158.372437,153.553146 159.168106,152.359482 159.963776,151.165833 
	C159.963776,151.165833 159.960190,150.933670 160.193405,150.793030 
	C160.584396,150.499725 160.730392,150.336502 160.864609,150.162750 
	C160.864609,150.162750 160.911423,149.922607 161.171967,149.746048 
	C161.617432,149.363464 161.798065,149.153763 161.974442,148.940384 
	C161.974442,148.940384 161.942032,148.975082 162.277847,148.866959 
	C163.724548,147.201981 164.835419,145.645126 165.946289,144.088257 
	C165.946289,144.088257 165.919983,143.914612 166.146378,143.737930 
	C166.551819,143.334290 166.718094,143.098343 166.871597,142.853378 
	C170.819473,136.981522 175.194702,131.578003 182.895340,128.947113 
	C185.425003,128.933655 187.164566,128.925995 188.904114,128.918335 
	C189.227783,129.069244 189.551437,129.220154 190.004608,130.010590 
	C191.440857,135.085068 192.747635,139.520035 194.054413,143.955002 
	C194.054413,143.955002 194.044647,143.976181 194.017807,144.359283 
	C191.070877,150.412766 187.851257,155.953354 185.321213,161.792725 
	C183.120743,166.871414 181.405594,172.023392 175.005814,173.122772 
	C175.005814,173.122772 175.001099,173.023911 174.862747,173.165680 
	C174.478241,173.505951 174.256668,173.728867 174.059662,173.976212 
	C174.059662,173.976212 174.058655,174.057343 173.845825,174.186066 
	C173.412949,174.502472 173.219360,174.714294 173.052216,174.950302 
	C173.052216,174.950302 173.044373,175.058990 172.824036,175.178955 
	C172.391647,175.479523 172.205872,175.684021 172.046371,175.912384 
	C171.851334,176.215912 171.656296,176.519440 171.045441,177.090073 
	C170.409805,177.560104 170.216675,177.785889 170.050262,178.034546 
	C170.050262,178.034546 170.035889,178.047501 169.711029,178.139130 
	C168.594360,179.423294 167.802551,180.615814 167.010757,181.808334 
	C167.010757,181.808334 167.009827,182.028351 166.764740,182.188599 
	C166.342133,182.534073 166.193970,182.740356 166.075180,182.967743 
	C166.075180,182.967743 166.085770,183.062302 165.864044,183.229309 
	C165.423279,183.628769 165.227921,183.879700 165.056290,184.149109 
	C165.056290,184.149109 165.030640,184.047104 164.899719,184.230286 
	C164.553116,184.697479 164.337418,184.981476 164.121735,185.265472 
	C164.121735,185.265472 164.159653,185.098297 164.024582,185.291107 
	C163.611038,185.948929 163.332550,186.413925 163.054077,186.878937 
	C163.054077,186.878937 163.082443,187.067368 162.827850,187.225433 
	C162.369629,187.589081 162.192139,187.815170 162.040756,188.061798 
	C162.040756,188.061798 162.002380,188.014435 161.848999,188.200287 
	C161.486023,188.655457 161.276398,188.924759 161.066772,189.194046 
	C161.066772,189.194046 161.051407,189.050735 160.935425,189.244461 
	C160.601364,189.732468 160.383286,190.026749 160.165192,190.321045 
	C160.165192,190.321030 160.188950,190.137985 160.051880,190.327759 
	C159.616028,190.995621 159.317245,191.473709 159.018448,191.951782 
	C159.018448,191.951782 159.027649,192.026657 158.819290,192.183472 
	C158.394302,192.559662 158.203781,192.799759 158.039383,193.060577 
	C158.039383,193.060577 158.053787,193.046432 157.734528,193.142059 
	C156.601944,194.406311 155.788620,195.574936 154.975296,196.743561 
	C154.975296,196.743561 154.961380,196.987640 154.720856,197.127075 
	C154.321045,197.411743 154.190125,197.579178 154.087555,197.768799 
z"/>
<path fill="#E66F0B" opacity="1.000000" stroke="none" 
	d="
M340.082153,161.977219 
	C340.082153,161.977219 340.442139,161.987671 340.621918,161.997482 
	C340.635681,165.991119 340.405975,169.973587 340.321655,173.959137 
	C340.238800,177.874557 340.303589,181.793091 340.303589,187.241058 
	C341.820770,184.368851 342.735229,182.713242 343.581360,181.023407 
	C348.548553,171.103119 362.375397,164.896606 373.110016,167.550308 
	C376.920990,168.492416 378.607819,170.667084 379.036530,174.426437 
	C380.729919,189.276077 380.560547,190.201233 366.130646,192.805939 
	C357.558960,194.353210 352.054474,197.956253 349.309021,206.399551 
	C348.006592,210.405136 345.297729,214.024597 342.862366,217.569138 
	C340.737915,220.661209 337.737793,221.569382 334.148621,219.644760 
	C329.611145,217.211609 325.001221,214.913544 320.557495,212.171875 
	C321.814789,209.777359 322.893829,207.742447 324.070251,205.765442 
	C325.588318,203.214233 326.601074,199.754898 328.862091,198.373413 
	C334.414154,194.981079 338.218018,190.641052 338.861969,184.233887 
	C339.604218,176.848724 339.703583,169.398941 340.082153,161.977219 
z"/>
<path fill="#EF8506" opacity="1.000000" stroke="none" 
	d="
M244.590698,201.001831 
	C244.140579,197.607727 244.059189,194.241837 243.977905,189.952423 
	C244.039276,183.554382 244.230103,178.075867 244.062057,172.608383 
	C244.024536,171.386978 242.727432,170.204285 242.010239,169.003769 
	C242.010239,169.003769 241.782089,168.705353 241.804718,168.518723 
	C244.259293,165.106247 246.680298,161.872025 249.137741,158.665726 
	C249.428757,158.286041 250.188217,158.124054 250.277908,157.752045 
	C252.528366,148.416962 261.189819,142.188873 262.532013,132.362518 
	C262.770477,130.616470 264.052795,128.814590 265.301300,127.447968 
	C267.600494,124.931259 270.232452,122.718529 272.606598,120.490929 
	C272.585815,120.396278 272.809509,121.416260 273.062988,123.243423 
	C273.252197,131.706741 273.411591,139.362885 273.570984,147.019028 
	C273.479065,150.125458 273.387177,153.231888 273.025848,157.093964 
	C272.390106,165.562759 272.023743,173.275925 271.657379,180.989090 
	C267.363434,180.463226 265.019287,182.334152 263.524292,186.454514 
	C261.574219,191.829071 259.795013,197.327545 254.861008,201.227112 
	C252.966461,202.724457 252.470612,205.991531 251.395935,208.325134 
	C249.016571,205.628372 246.987991,203.329193 244.590698,201.001831 
z"/>
<path fill="#EE8207" opacity="1.000000" stroke="none" 
	d="
M343.984558,68.957275 
	C342.839081,69.530762 341.038177,69.823761 340.653442,70.722801 
	C337.955078,77.028320 335.203308,83.353668 333.211151,89.898689 
	C332.355469,92.709953 331.576447,94.538246 328.736694,95.728897 
	C326.755127,96.559731 324.709747,98.193260 323.619080,100.020950 
	C319.852203,106.333336 316.844299,113.116272 312.860931,119.276115 
	C309.833893,123.957024 305.768280,127.967346 302.150696,132.264160 
	C301.627167,132.885956 300.833435,133.346207 300.487854,134.041748 
	C296.802124,141.458954 293.186432,148.910950 289.531158,156.343384 
	C289.316742,156.779373 288.927612,157.129456 288.363037,157.746063 
	C290.321442,150.327896 292.462097,142.660645 294.767273,135.043198 
	C299.445679,119.583450 304.222839,104.153618 308.939514,88.705421 
	C311.214935,81.252983 313.348297,73.754982 315.774506,66.352509 
	C316.291382,64.775414 317.506073,63.001213 318.903961,62.214275 
	C324.239746,59.210468 339.192596,61.897297 343.898590,67.052811 
	C343.985901,68.122795 343.985229,68.540031 343.984558,68.957275 
z"/>
<path fill="#F3A207" opacity="1.000000" stroke="none" 
	d="
M141.251816,168.393555 
	C139.546051,168.821625 137.705734,168.698196 135.914627,168.939774 
	C130.413101,169.681732 130.023392,170.940018 132.621674,175.798431 
	C133.328476,177.120056 133.007507,179.979614 132.003479,181.041473 
	C129.062241,184.152100 128.883743,187.378983 129.913208,191.178146 
	C131.349487,196.478683 132.567535,201.838364 133.912720,207.554565 
	C131.670944,199.846573 129.368423,191.764206 127.134590,183.662888 
	C126.356026,180.839355 125.747093,177.969055 124.854218,174.263062 
	C122.044106,176.387680 119.928360,177.907516 117.898796,179.534821 
	C105.100639,189.796417 89.981979,190.003036 77.144005,179.850754 
	C75.975159,178.926437 75.228210,176.874115 75.154968,175.305008 
	C75.057060,173.207626 75.714470,171.047791 76.215630,168.955017 
	C77.459854,163.759460 80.807671,161.803864 85.904892,163.395279 
	C89.701920,164.580765 93.381508,166.149414 97.192070,167.282944 
	C103.761589,169.237167 109.294334,167.193726 113.933556,162.393188 
	C116.357468,159.884979 118.609558,157.205994 121.097878,154.765900 
	C124.469620,151.459503 128.342865,149.502167 133.273712,150.964920 
	C138.441528,152.497955 138.927383,156.956680 139.784378,161.201309 
	C140.242310,163.469315 140.688354,165.739700 141.251816,168.393555 
z"/>
<path fill="#EA7609" opacity="1.000000" stroke="none" 
	d="
M340.059570,161.513428 
	C339.703583,169.398941 339.604218,176.848724 338.861969,184.233887 
	C338.218018,190.641052 334.414154,194.981079 328.862091,198.373413 
	C326.601074,199.754898 325.588318,203.214233 324.070251,205.765442 
	C322.893829,207.742447 321.814789,209.777359 320.350586,211.902786 
	C316.789673,209.997086 313.570648,207.975143 310.140106,205.711273 
	C310.051361,199.210800 309.351593,192.778549 310.621948,186.762299 
	C311.324066,183.437088 315.802185,181.091995 317.756622,177.815094 
	C324.355011,166.752060 330.579529,155.466156 336.967651,144.277283 
	C337.552368,143.253128 338.284698,142.313232 340.036987,141.693466 
	C340.036987,148.145523 340.036987,154.597565 340.059570,161.513428 
z"/>
<path fill="#EF910A" opacity="1.000000" stroke="none" 
	d="
M175.379898,173.150116 
	C181.405594,172.023392 183.120743,166.871414 185.321213,161.792725 
	C187.851257,155.953354 191.070877,150.412766 194.028168,144.364502 
	C197.498947,152.138824 200.821899,160.340607 204.438873,168.410614 
	C205.421539,170.603104 207.291199,172.398041 208.936523,174.662109 
	C203.131775,175.427475 201.396469,180.417374 198.713470,184.537613 
	C196.895035,187.330170 194.376450,189.666901 192.559067,192.459991 
	C191.336441,194.338974 189.781189,196.835098 190.115250,198.751785 
	C191.716995,207.941910 193.911942,217.028671 195.924911,226.537918 
	C195.314087,226.045929 194.388016,225.258667 194.077744,224.276840 
	C189.278610,209.089767 184.640015,193.851273 179.726685,178.701736 
	C179.060272,176.646957 177.109863,175.008621 175.379898,173.150116 
z"/>
<path fill="#EDA811" opacity="1.000000" stroke="none" 
	d="
M51.851284,170.985168 
	C53.591549,165.315308 56.865486,163.766846 63.133656,165.271210 
	C66.764618,166.142654 68.881805,168.629730 67.758644,172.103561 
	C67.125389,174.062195 64.629364,176.435364 62.662834,176.762909 
	C55.667938,177.927994 53.675045,176.628845 51.851284,170.985168 
z"/>
<path fill="#C77F2C" opacity="1.000000" stroke="none" 
	d="
M271.688507,181.370987 
	C272.023743,173.275925 272.390106,165.562759 272.942444,157.503448 
	C272.995514,167.784378 272.862549,178.411423 272.447266,189.138672 
	C272.015076,187.254288 271.865173,185.269699 271.715271,183.285110 
	C271.716736,182.774368 271.718170,182.263626 271.688507,181.370987 
z"/>
<path fill="#E9780A" opacity="1.000000" stroke="none" 
	d="
M345.379456,97.895111 
	C345.086029,88.856117 345.121002,79.600464 345.139648,69.883789 
	C345.734589,75.730064 346.571075,82.027031 346.860687,88.349060 
	C347.002045,91.434776 346.124298,94.567177 345.379456,97.895111 
z"/>
<path fill="#C77F2C" opacity="1.000000" stroke="none" 
	d="
M273.690063,146.567596 
	C273.411591,139.362885 273.252197,131.706741 273.076721,123.597549 
	C273.420319,120.989769 273.779968,118.835030 274.289612,116.345245 
	C274.229462,126.045509 274.019318,136.080841 273.690063,146.567596 
z"/>
<path fill="#EF8B07" opacity="1.000000" stroke="none" 
	d="
M241.976685,169.460693 
	C242.727432,170.204285 244.024536,171.386978 244.062057,172.608383 
	C244.230103,178.075867 244.039276,183.554382 243.965057,189.491867 
	C243.952118,189.954819 243.592545,189.972198 243.412903,189.983612 
	C242.803223,183.302551 242.373184,176.610092 241.976685,169.460693 
z"/>
<path fill="#C77F2C" opacity="1.000000" stroke="none" 
	d="
M274.441010,199.787933 
	C274.303131,201.060898 273.882080,202.657639 273.461029,204.254364 
	C272.806671,204.205948 272.152313,204.157532 271.497986,204.109116 
	C271.365814,200.759460 271.233643,197.409790 271.270233,193.565125 
	C271.438995,193.070129 271.819672,192.993576 271.819672,192.993576 
	C271.819672,192.993576 272.207458,193.013855 272.207458,193.013855 
	C272.217010,195.082932 272.136993,197.160095 272.322235,199.213318 
	C272.353943,199.565109 273.517273,199.814835 274.441010,199.787933 
z"/>
<path fill="#EF910A" opacity="1.000000" stroke="none" 
	d="
M194.077484,143.538528 
	C192.747635,139.520035 191.440857,135.085068 190.122803,130.254791 
	C191.441177,134.280350 192.770859,138.701202 194.077484,143.538528 
z"/>
<path fill="#EF910A" opacity="1.000000" stroke="none" 
	d="
M196.334961,227.306717 
	C198.566284,226.798645 201.013062,226.568649 203.854614,226.230225 
	C202.519348,231.010361 199.422272,228.705002 196.334961,227.306717 
z"/>
<path fill="#EF8506" opacity="1.000000" stroke="none" 
	d="
M272.326233,192.637863 
	C272.207458,193.013855 271.819672,192.993576 271.819672,192.993576 
	C271.819672,192.993576 271.438995,193.070129 271.251953,193.122009 
	C271.191010,190.103760 271.317108,187.033630 271.579224,183.624298 
	C271.865173,185.269699 272.015076,187.254288 272.310181,189.583954 
	C272.451904,190.706635 272.448456,191.484253 272.326233,192.637863 
z"/>
<path fill="#C77F2C" opacity="1.000000" stroke="none" 
	d="
M266.123871,95.627167 
	C263.228210,96.218964 259.977783,96.577682 256.296692,96.917938 
	C259.167053,96.397682 262.468079,95.895882 266.123871,95.627167 
z"/>
<path fill="#C77F2C" opacity="1.000000" stroke="none" 
	d="
M274.704803,113.616745 
	C274.424500,110.282738 274.263763,106.498863 274.168304,102.247795 
	C274.430481,105.576027 274.627441,109.371445 274.704803,113.616745 
z"/>
<path fill="#F3A207" opacity="1.000000" stroke="none" 
	d="
M165.656830,144.215942 
	C164.835419,145.645126 163.724548,147.201981 162.280258,148.842926 
	C163.087021,147.399216 164.227188,145.871414 165.656830,144.215942 
z"/>
<path fill="#C77F2C" opacity="1.000000" stroke="none" 
	d="
M240.718109,120.184181 
	C239.773514,122.500656 238.559128,125.018753 237.072113,127.756134 
	C238.015762,125.445541 239.232056,122.915672 240.718109,120.184181 
z"/>
<path fill="#EF910A" opacity="1.000000" stroke="none" 
	d="
M230.699860,139.218445 
	C230.160812,140.894302 229.365509,142.781830 228.247162,144.803482 
	C228.763947,143.101776 229.603775,141.265961 230.699860,139.218445 
z"/>
<path fill="#EF910A" opacity="1.000000" stroke="none" 
	d="
M213.749939,170.314240 
	C213.150772,171.660355 212.293762,173.195084 211.090088,174.809479 
	C211.659637,173.427032 212.575867,171.964951 213.749939,170.314240 
z"/>
<path fill="#EF910A" opacity="1.000000" stroke="none" 
	d="
M149.310944,202.712402 
	C150.078323,201.565689 151.136047,200.328522 152.532837,199.064270 
	C151.781677,200.232117 150.691483,201.427032 149.310944,202.712402 
z"/>
<path fill="#E9780A" opacity="1.000000" stroke="none" 
	d="
M344.413818,105.149323 
	C344.252625,103.444183 344.389893,101.592850 344.687378,99.385483 
	C344.802490,101.020668 344.757355,103.011902 344.413818,105.149323 
z"/>
<path fill="#F3A207" opacity="1.000000" stroke="none" 
	d="
M159.685333,151.290802 
	C159.168106,152.359482 158.372437,153.553146 157.255203,154.836502 
	C157.758057,153.756042 158.582489,152.585907 159.685333,151.290802 
z"/>
<path fill="#EF910A" opacity="1.000000" stroke="none" 
	d="
M155.249451,196.614441 
	C155.788620,195.574936 156.601944,194.406311 157.734741,193.157166 
	C157.210678,194.212875 156.367126,195.349106 155.249451,196.614441 
z"/>
<path fill="#EF910A" opacity="1.000000" stroke="none" 
	d="
M167.290146,181.687531 
	C167.802551,180.615814 168.594360,179.423294 169.705688,178.147247 
	C169.206665,179.231400 168.388107,180.399063 167.290146,181.687531 
z"/>
<path fill="#C77F2C" opacity="1.000000" stroke="none" 
	d="
M276.430695,193.602264 
	C276.237122,195.013275 275.812439,196.730530 275.121277,198.714188 
	C275.303070,197.289886 275.751343,195.599197 276.430695,193.602264 
z"/>
<path fill="#F3A207" opacity="1.000000" stroke="none" 
	d="
M144.607208,168.069092 
	C143.794556,168.343292 142.654785,168.708054 141.252075,168.890152 
	C142.086121,168.524872 143.183105,168.342255 144.607208,168.069092 
z"/>
<path fill="#C77F2C" opacity="1.000000" stroke="none" 
	d="
M245.694321,111.117706 
	C245.424835,112.138290 244.881927,113.348297 244.036224,114.728088 
	C244.295914,113.700951 244.858414,112.504036 245.694321,111.117706 
z"/>
<path fill="#C77F2C" opacity="1.000000" stroke="none" 
	d="
M278.578552,187.717545 
	C278.310486,189.130051 277.779144,190.821335 276.979309,192.781433 
	C277.245636,191.365585 277.780426,189.680954 278.578552,187.717545 
z"/>
<path fill="#EF910A" opacity="1.000000" stroke="none" 
	d="
M188.689270,128.618607 
	C187.164566,128.925995 185.425003,128.933655 183.249893,128.912323 
	C184.701035,128.695190 186.587723,128.507034 188.689270,128.618607 
z"/>
<path fill="#EF910A" opacity="1.000000" stroke="none" 
	d="
M141.479523,208.228973 
	C142.193985,207.532272 143.233826,206.806824 144.608429,206.062408 
	C143.897095,206.762375 142.850983,207.481323 141.479523,208.228973 
z"/>
<path fill="#EF910A" opacity="1.000000" stroke="none" 
	d="
M227.650085,145.128525 
	C227.401062,146.150314 226.872711,147.351929 226.056625,148.740616 
	C226.302856,147.721252 226.836807,146.514801 227.650085,145.128525 
z"/>
<path fill="#EF910A" opacity="1.000000" stroke="none" 
	d="
M206.328522,222.855042 
	C206.502014,222.098724 206.948700,221.207062 207.672913,220.175049 
	C207.500870,220.929703 207.051300,221.824692 206.328522,222.855042 
z"/>
<path fill="#EF910A" opacity="1.000000" stroke="none" 
	d="
M215.677856,167.125153 
	C215.499954,167.864883 215.067383,168.772858 214.357864,169.824402 
	C214.528336,169.076431 214.975769,168.184921 215.677856,167.125153 
z"/>
<path fill="#C77F2C" opacity="1.000000" stroke="none" 
	d="
M250.394653,102.852524 
	C250.216064,103.629883 249.781937,104.603256 249.055603,105.743729 
	C249.222000,104.956734 249.680557,104.002632 250.394653,102.852524 
z"/>
<path fill="#EF910A" opacity="1.000000" stroke="none" 
	d="
M218.618332,161.818298 
	C218.458832,162.623352 218.036835,163.626816 217.321167,164.795319 
	C217.470276,163.979141 217.913055,162.997925 218.618332,161.818298 
z"/>
<path fill="#EF910A" opacity="1.000000" stroke="none" 
	d="
M225.588776,149.007385 
	C225.431686,149.763748 225.026733,150.705109 224.337204,151.790359 
	C224.482056,151.020279 224.911484,150.106339 225.588776,149.007385 
z"/>
<path fill="#F3A207" opacity="1.000000" stroke="none" 
	d="
M151.527954,160.875153 
	C151.352692,161.393188 150.902023,162.030167 150.171722,162.789612 
	C150.345596,162.272751 150.799088,161.633423 151.527954,160.875153 
z"/>
<path fill="#EF910A" opacity="1.000000" stroke="none" 
	d="
M235.001465,133.001404 
	C234.553833,133.584274 234.106201,134.167145 233.404297,134.869492 
	C233.338974,134.481277 233.527908,133.973572 234.119827,133.240982 
	C234.522812,133.016098 235.001465,133.001404 235.001465,133.001404 
z"/>
<path fill="#F3A207" opacity="1.000000" stroke="none" 
	d="
M135.239441,209.316727 
	C135.892929,209.076263 136.750458,209.082779 138.040787,209.088211 
	C137.463562,209.245987 136.453522,209.404846 135.239441,209.316727 
z"/>
<path fill="#EF910A" opacity="1.000000" stroke="none" 
	d="
M147.411743,204.239044 
	C147.514954,203.919708 147.893951,203.562683 148.512146,203.108521 
	C148.396729,203.408020 148.042130,203.804688 147.411743,204.239044 
z"/>
<path fill="#EF910A" opacity="1.000000" stroke="none" 
	d="
M220.693039,158.112244 
	C220.707886,158.474426 220.466537,159.006592 220.052322,159.776550 
	C220.065247,159.436981 220.251053,158.859589 220.693039,158.112244 
z"/>
<path fill="#C77F2C" opacity="1.000000" stroke="none" 
	d="
M269.176147,96.647568 
	C268.773315,96.734085 268.130341,96.573845 267.217834,96.213913 
	C267.610870,96.143097 268.273438,96.271950 269.176147,96.647568 
z"/>
<path fill="#EF910A" opacity="1.000000" stroke="none" 
	d="
M163.316589,186.764435 
	C163.332550,186.413925 163.611038,185.948929 164.108032,185.310638 
	C164.077393,185.641556 163.828247,186.145752 163.316589,186.764435 
z"/>
<path fill="#EF910A" opacity="1.000000" stroke="none" 
	d="
M216.732605,165.220062 
	C216.741180,165.555862 216.510101,166.051712 216.106613,166.764496 
	C216.120453,166.447678 216.306702,165.913910 216.732605,165.220062 
z"/>
<path fill="#E9780A" opacity="1.000000" stroke="none" 
	d="
M344.241638,68.973152 
	C343.985229,68.540031 343.985901,68.122795 343.999512,67.393723 
	C344.348785,67.526588 344.685150,67.971275 345.017639,68.708672 
	C344.842072,68.997261 344.670380,68.993141 344.241638,68.973152 
z"/>
<path fill="#C77F2C" opacity="1.000000" stroke="none" 
	d="
M253.743042,98.094254 
	C253.705917,98.474693 253.389252,98.968491 252.798309,99.594681 
	C252.837204,99.220589 253.150345,98.714104 253.743042,98.094254 
z"/>
<path fill="#EF910A" opacity="1.000000" stroke="none" 
	d="
M159.286682,191.828247 
	C159.317245,191.473709 159.616028,190.995621 160.143311,190.340393 
	C160.099503,190.677078 159.827225,191.190903 159.286682,191.828247 
z"/>
<path fill="#C77F2C" opacity="1.000000" stroke="none" 
	d="
M255.663589,96.861694 
	C255.507599,97.202538 255.037308,97.555840 254.273834,97.965729 
	C254.436874,97.639587 254.893082,97.256866 255.663589,96.861694 
z"/>
<path fill="#F3A207" opacity="1.000000" stroke="none" 
	d="
M153.708923,158.337616 
	C153.664383,158.660614 153.363098,159.101166 152.863953,159.731934 
	C152.928131,159.433136 153.190155,158.944153 153.708923,158.337616 
z"/>
<path fill="#EF910A" opacity="1.000000" stroke="none" 
	d="
M205.237885,224.762177 
	C205.232224,224.438690 205.454208,223.956848 205.841400,223.266052 
	C205.826233,223.572678 205.645874,224.088242 205.237885,224.762177 
z"/>
<path fill="#C77F2C" opacity="1.000000" stroke="none" 
	d="
M236.618622,127.994362 
	C236.636276,128.382538 236.391327,128.937668 235.895828,129.678925 
	C235.882172,129.297150 236.119095,128.729218 236.618622,127.994362 
z"/>
<path fill="#C77F2C" opacity="1.000000" stroke="none" 
	d="
M251.617584,101.031921 
	C251.607208,101.401001 251.343903,101.937477 250.823914,102.647575 
	C250.833038,102.280571 251.098846,101.739944 251.617584,101.031921 
z"/>
<path fill="#C77F2C" opacity="1.000000" stroke="none" 
	d="
M235.484268,129.929169 
	C235.522934,130.309387 235.324173,130.886246 234.880890,131.660675 
	C234.839874,131.280777 235.043350,130.703278 235.484268,129.929169 
z"/>
<path fill="#EF910A" opacity="1.000000" stroke="none" 
	d="
M232.805237,135.368744 
	C232.816528,135.671478 232.609283,136.112762 232.252655,136.746460 
	C232.264420,136.461685 232.425552,135.984482 232.805237,135.368744 
z"/>
<path fill="#EF910A" opacity="1.000000" stroke="none" 
	d="
M231.769348,137.300781 
	C231.771194,137.618393 231.543381,138.085464 231.148651,138.754532 
	C231.167740,138.454422 231.353729,137.952316 231.769348,137.300781 
z"/>
<path fill="#C77F2C" opacity="1.000000" stroke="none" 
	d="
M274.292297,101.596649 
	C273.969543,101.405273 273.639008,100.892754 273.269684,100.073257 
	C273.582092,100.269356 273.933289,100.772423 274.292297,101.596649 
z"/>
<path fill="#EF910A" opacity="1.000000" stroke="none" 
	d="
M208.265747,219.774353 
	C208.265152,219.438690 208.507782,218.957916 208.930359,218.275726 
	C208.909866,218.592621 208.709396,219.110931 208.265747,219.774353 
z"/>
<path fill="#C77F2C" opacity="1.000000" stroke="none" 
	d="
M248.580368,105.975845 
	C248.602982,106.360901 248.369492,106.920990 247.889465,107.673096 
	C247.870041,107.293701 248.097168,106.722298 248.580368,105.975845 
z"/>
<path fill="#EF910A" opacity="1.000000" stroke="none" 
	d="
M223.740082,152.290314 
	C223.750534,152.603134 223.541977,153.072052 223.174988,153.745422 
	C223.184723,153.448730 223.352890,152.947586 223.740082,152.290314 
z"/>
<path fill="#EF910A" opacity="1.000000" stroke="none" 
	d="
M222.734528,154.208694 
	C222.745865,154.541397 222.523895,155.037018 222.134308,155.749222 
	C222.144882,155.434402 222.323044,154.903000 222.734528,154.208694 
z"/>
<path fill="#C77F2C" opacity="1.000000" stroke="none" 
	d="
M243.564270,114.969742 
	C243.601456,115.352287 243.390930,115.922287 242.947983,116.699539 
	C242.915909,116.323586 243.116241,115.740387 243.564270,114.969742 
z"/>
<path fill="#EF910A" opacity="1.000000" stroke="none" 
	d="
M221.699341,156.145447 
	C221.725967,156.502243 221.499481,157.019043 221.100372,157.763000 
	C221.100571,157.428589 221.273392,156.867035 221.699341,156.145447 
z"/>
<path fill="#EF910A" opacity="1.000000" stroke="none" 
	d="
M161.336227,189.109863 
	C161.276398,188.924759 161.486023,188.655457 161.878784,188.206787 
	C161.909851,188.360168 161.757767,188.692917 161.336227,189.109863 
z"/>
<path fill="#EF910A" opacity="1.000000" stroke="none" 
	d="
M162.272461,187.998169 
	C162.192139,187.815170 162.369629,187.589081 162.734497,187.244507 
	C162.923721,187.456573 162.793198,187.732925 162.272461,187.998169 
z"/>
<path fill="#EF910A" opacity="1.000000" stroke="none" 
	d="
M204.297302,226.108185 
	C204.226913,225.920990 204.426041,225.662811 204.788574,225.223953 
	C204.820175,225.371964 204.691772,225.703278 204.297302,226.108185 
z"/>
<path fill="#EF910A" opacity="1.000000" stroke="none" 
	d="
M164.406616,185.177200 
	C164.337418,184.981476 164.553116,184.697479 164.950760,184.217621 
	C164.985657,184.377487 164.838593,184.733215 164.406616,185.177200 
z"/>
<path fill="#F3A207" opacity="1.000000" stroke="none" 
	d="
M147.682251,165.177948 
	C147.711487,165.320465 147.515472,165.504181 147.154480,165.808258 
	C146.998901,165.598907 147.154755,165.362411 147.682251,165.177948 
z"/>
<path fill="#EF910A" opacity="1.000000" stroke="none" 
	d="
M160.454895,190.224854 
	C160.383286,190.026749 160.601364,189.732468 161.007111,189.237030 
	C161.044708,189.400131 160.894653,189.764404 160.454895,190.224854 
z"/>
<path fill="#EF910A" opacity="1.000000" stroke="none" 
	d="
M158.278076,192.981750 
	C158.203781,192.799759 158.394302,192.559662 158.781860,192.188217 
	C158.807449,192.325058 158.662109,192.613983 158.278076,192.981750 
z"/>
<path fill="#EF910A" opacity="1.000000" stroke="none" 
	d="
M139.942200,208.269424 
	C140.152405,208.251389 140.362595,208.233368 140.889435,208.210938 
	C140.970825,208.425522 140.735550,208.644531 140.232574,208.703369 
	C139.964859,208.543198 139.942200,208.269424 139.942200,208.269424 
z"/>
<path fill="#EF910A" opacity="1.000000" stroke="none" 
	d="
M154.270462,197.742035 
	C154.190125,197.579178 154.321045,197.411743 154.606537,197.170288 
	C154.784637,197.351135 154.691513,197.564865 154.270462,197.742035 
z"/>
<path fill="#F3A207" opacity="1.000000" stroke="none" 
	d="
M139.765686,208.362793 
	C139.942200,208.269424 139.964859,208.543198 139.979858,208.679718 
	C139.836090,208.894028 139.677338,208.971817 139.254608,209.022980 
	C139.173691,208.798035 139.373184,208.617966 139.765686,208.362793 
z"/>
<path fill="#F3A207" opacity="1.000000" stroke="none" 
	d="
M134.051300,208.330688 
	C134.243195,208.265060 134.451859,208.464935 134.786591,208.845825 
	C134.645813,208.867920 134.364288,208.724380 134.051300,208.330688 
z"/>
<path fill="#EF910A" opacity="1.000000" stroke="none" 
	d="
M146.298615,205.041489 
	C146.271408,204.859833 146.532471,204.629807 147.000229,204.240173 
	C147.000259,204.384766 146.793579,204.688950 146.298615,205.041489 
z"/>
<path fill="#EF910A" opacity="1.000000" stroke="none" 
	d="
M145.325699,205.931961 
	C145.262299,205.728180 145.481766,205.507294 145.912994,205.169144 
	C145.928253,205.315247 145.756180,205.602905 145.325699,205.931961 
z"/>
<path fill="#EF910A" opacity="1.000000" stroke="none" 
	d="
M219.730530,159.944305 
	C219.802124,160.111389 219.624863,160.360580 219.297562,160.783203 
	C219.264252,160.650375 219.375641,160.340302 219.730530,159.944305 
z"/>
<path fill="#C77F2C" opacity="1.000000" stroke="none" 
	d="
M246.628143,109.637405 
	C246.716904,109.824791 246.541336,110.196960 246.147095,110.788208 
	C246.073547,110.612251 246.218689,110.217216 246.628143,109.637405 
z"/>
<path fill="#C77F2C" opacity="1.000000" stroke="none" 
	d="
M242.583099,116.891281 
	C242.685287,117.061638 242.558807,117.367668 242.248230,117.844772 
	C242.160889,117.686203 242.257645,117.356575 242.583099,116.891281 
z"/>
<path fill="#C77F2C" opacity="1.000000" stroke="none" 
	d="
M241.544495,118.836914 
	C241.635422,119.004295 241.500931,119.320587 241.174530,119.814545 
	C241.094757,119.656746 241.206909,119.321281 241.544495,118.836914 
z"/>
<path fill="#C77F2C" opacity="1.000000" stroke="none" 
	d="
M234.947083,132.687302 
	C235.001465,133.001404 234.522812,133.016098 234.283386,133.016571 
	C234.119797,132.691986 234.195618,132.366959 234.487518,131.903122 
	C234.766602,131.967270 234.829651,132.170227 234.947083,132.687302 
z"/>
<path fill="#F3A207" opacity="1.000000" stroke="none" 
	d="
M166.654709,142.946106 
	C166.718094,143.098343 166.551819,143.334290 166.233139,143.724396 
	C166.073792,143.550049 166.188553,143.267151 166.654709,142.946106 
z"/>
<path fill="#C77F2C" opacity="1.000000" stroke="none" 
	d="
M252.427872,99.741226 
	C252.520126,99.917198 252.373718,100.237701 252.033493,100.739067 
	C251.956192,100.575203 252.072708,100.230484 252.427872,99.741226 
z"/>
<path fill="#F3A207" opacity="1.000000" stroke="none" 
	d="
M161.752808,149.003204 
	C161.798065,149.153763 161.617432,149.363464 161.290009,149.713867 
	C161.134735,149.526199 161.262634,149.262131 161.752808,149.003204 
z"/>
<path fill="#F3A207" opacity="1.000000" stroke="none" 
	d="
M160.678284,150.194275 
	C160.730392,150.336502 160.584396,150.499725 160.304596,150.759674 
	C160.135910,150.580795 160.239029,150.367081 160.678284,150.194275 
z"/>
<path fill="#F3A207" opacity="1.000000" stroke="none" 
	d="
M156.742798,154.998840 
	C156.781494,155.160889 156.573013,155.381729 156.197083,155.755463 
	C156.048157,155.551620 156.203476,155.268051 156.742798,154.998840 
z"/>
<path fill="#F3A207" opacity="1.000000" stroke="none" 
	d="
M155.698151,156.084412 
	C155.748306,156.238556 155.571960,156.433624 155.240723,156.749969 
	C155.065094,156.549515 155.193710,156.300858 155.698151,156.084412 
z"/>
<path fill="#F3A207" opacity="1.000000" stroke="none" 
	d="
M154.688934,157.203064 
	C154.734619,157.330872 154.596069,157.492905 154.341675,157.763184 
	C154.184540,157.603210 154.277512,157.391846 154.688934,157.203064 
z"/>
<path fill="#C77F2C" opacity="1.000000" stroke="none" 
	d="
M273.194031,99.564636 
	C273.004181,99.602524 272.724854,99.371223 272.329834,98.888748 
	C272.510956,98.856873 272.807770,99.076157 273.194031,99.564636 
z"/>
<path fill="#F3A207" opacity="1.000000" stroke="none" 
	d="
M152.633301,159.812042 
	C152.696762,160.035461 152.435211,160.300507 152.003204,160.785950 
	C151.991257,160.622131 152.149765,160.237915 152.633301,159.812042 
z"/>
<path fill="#EF910A" opacity="1.000000" stroke="none" 
	d="
M165.312408,184.078674 
	C165.227921,183.879700 165.423279,183.628769 165.816803,183.234955 
	C165.850372,183.385147 165.709457,183.696686 165.312408,184.078674 
z"/>
<path fill="#F3A207" opacity="1.000000" stroke="none" 
	d="
M149.715576,162.974976 
	C149.758072,163.160004 149.522537,163.401566 149.105209,163.819366 
	C149.094788,163.674255 149.266159,163.352875 149.715576,162.974976 
z"/>
<path fill="#F3A207" opacity="1.000000" stroke="none" 
	d="
M148.741608,163.965988 
	C148.800339,164.146332 148.606918,164.371078 148.253113,164.746368 
	C148.092270,164.544479 148.224518,164.248962 148.741608,163.965988 
z"/>
<path fill="#C77F2C" opacity="1.000000" stroke="none" 
	d="
M272.223358,98.508636 
	C272.033783,98.580414 271.718628,98.392899 271.242065,97.978111 
	C271.419739,97.917015 271.758728,98.083183 272.223358,98.508636 
z"/>
<path fill="#C77F2C" opacity="1.000000" stroke="none" 
	d="
M247.517365,107.865234 
	C247.627319,108.040482 247.500229,108.378769 247.186646,108.920273 
	C247.093536,108.758423 247.186920,108.393356 247.517365,107.865234 
z"/>
<path fill="#F3A207" opacity="1.000000" stroke="none" 
	d="
M146.703766,166.063141 
	C146.741913,166.219635 146.538208,166.432281 146.164337,166.786560 
	C146.013550,166.582794 146.169464,166.313156 146.703766,166.063141 
z"/>
<path fill="#F3A207" opacity="1.000000" stroke="none" 
	d="
M145.700577,167.072174 
	C145.732391,167.225723 145.521973,167.439774 145.139008,167.800385 
	C145.004059,167.601898 145.168015,167.330490 145.700577,167.072174 
z"/>
<path fill="#C77F2C" opacity="1.000000" stroke="none" 
	d="
M271.090210,97.604012 
	C270.903473,97.713852 270.576904,97.568764 270.055481,97.233109 
	C270.223877,97.144714 270.587097,97.246902 271.090210,97.604012 
z"/>
<path fill="#EF910A" opacity="1.000000" stroke="none" 
	d="
M174.307983,173.911377 
	C174.256668,173.728867 174.478241,173.505951 174.912186,173.163391 
	C174.918747,173.295074 174.737534,173.570801 174.307983,173.911377 
z"/>
<path fill="#EF910A" opacity="1.000000" stroke="none" 
	d="
M173.284546,174.899933 
	C173.219360,174.714294 173.412949,174.502472 173.805267,174.185852 
	C173.969147,174.405518 173.815598,174.669739 173.284546,174.899933 
z"/>
<path fill="#EF910A" opacity="1.000000" stroke="none" 
	d="
M172.265930,175.857635 
	C172.205872,175.684021 172.391647,175.479523 172.769684,175.175278 
	C172.915573,175.379990 172.765518,175.630402 172.265930,175.857635 
z"/>
<path fill="#EF910A" opacity="1.000000" stroke="none" 
	d="
M170.289124,177.972900 
	C170.216675,177.785889 170.409805,177.560104 170.802277,177.219025 
	C170.987091,177.444336 170.838104,177.721130 170.289124,177.972900 
z"/>
<path fill="#EF910A" opacity="1.000000" stroke="none" 
	d="
M166.278519,182.905563 
	C166.193970,182.740356 166.342133,182.534073 166.660706,182.224365 
	C166.844101,182.411789 166.737473,182.659622 166.278519,182.905563 
z"/>
<path fill="#EF8506" opacity="1.000000" stroke="none" 
	d="
M244.991013,220.575851 
	C244.711029,215.984177 244.435486,210.987381 244.209961,205.536469 
	C248.644821,207.376785 248.660736,210.641907 246.625137,214.626114 
	C245.763885,216.311829 245.519958,218.312958 244.991013,220.575851 
z"/>
</svg>