<svg version="1.1" id="Layer_1" xmlns="http://www.w3.org/2000/svg" xmlns:xlink="http://www.w3.org/1999/xlink" x="0px" y="0px"
	 width="100%" viewBox="0 0 1200 1200" enable-background="new 0 0 1200 1200" xml:space="preserve">
<path fill="#00D632" opacity="1.000000" stroke="none" 
	d="
M1201.000000,286.000000 
	C1201.000000,495.693512 1201.000000,705.387024 1200.573242,915.427612 
	C1199.768311,916.621216 1199.123779,917.445679 1199.051514,918.317505 
	C1197.990967,931.114319 1197.403809,943.964539 1195.891479,956.705688 
	C1194.408203,969.203064 1192.346924,981.658508 1189.922729,994.011353 
	C1186.011963,1013.938965 1180.151489,1033.275024 1171.145386,1051.592407 
	C1161.392456,1071.428955 1149.493774,1089.789307 1135.037476,1106.545776 
	C1121.370605,1122.387207 1106.442749,1136.937256 1089.286865,1148.829346 
	C1067.175049,1164.156860 1043.553467,1176.766235 1017.396851,1184.017456 
	C985.491821,1192.862183 952.974365,1197.682983 919.914246,1199.076660 
	C918.252075,1199.146851 916.636963,1200.333252 915.000000,1201.000000 
	C705.639771,1201.000000 496.279602,1201.000000 286.581543,1200.574341 
	C285.230499,1199.767212 284.237946,1199.131226 283.200684,1199.047363 
	C277.938812,1198.621582 272.640045,1198.561646 267.400635,1197.965576 
	C250.774490,1196.074585 234.071716,1194.588745 217.580032,1191.852661 
	C196.637970,1188.377930 176.122971,1182.979370 156.628784,1174.264893 
	C130.477432,1162.574463 106.913635,1146.823975 86.051544,1127.349609 
	C75.705803,1117.692017 65.992691,1107.067871 57.546856,1095.724365 
	C40.065887,1072.245850 25.902685,1046.830322 17.985138,1018.354370 
	C9.119278,986.467896 4.302580,953.956055 2.923084,920.904053 
	C2.853862,919.245483 1.666649,917.633606 0.999997,916.000000 
	C1.000000,705.973145 1.000000,495.946259 1.427607,285.559875 
	C2.232996,284.355133 2.873984,283.532501 2.948927,282.661194 
	C4.007073,270.359344 4.461487,257.979370 6.119922,245.761871 
	C8.250319,230.067490 11.010571,214.438660 14.081761,198.896652 
	C18.493702,176.569702 26.831465,155.541183 38.130905,135.905273 
	C52.039635,111.734955 68.917000,89.856911 90.017242,71.220154 
	C104.378693,58.535431 119.718475,47.425556 136.268631,37.994625 
	C160.668442,24.090639 187.006119,15.727314 214.651688,10.809479 
	C237.339920,6.773505 260.051941,3.597398 283.097717,2.915711 
	C284.083160,2.886561 285.033386,1.665701 286.000000,0.999997 
	C495.693512,1.000000 705.387024,1.000000 915.414307,1.425267 
	C916.761536,2.232236 917.750916,2.856609 918.791931,2.959464 
	C936.120972,4.671721 953.614624,5.372048 970.748596,8.232536 
	C989.867432,11.424412 1008.991577,15.479180 1027.516724,21.118595 
	C1053.742432,29.102184 1076.890747,43.350620 1098.670410,59.991058 
	C1116.132690,73.332870 1131.415039,88.840271 1144.459229,106.266129 
	C1161.986328,129.680634 1176.120483,155.114197 1184.018555,183.599991 
	C1192.865112,215.506500 1197.612671,248.035065 1199.076416,281.084808 
	C1199.150146,282.748352 1200.333374,284.362732 1201.000000,286.000000 
M586.634338,660.874023 
	C600.592346,666.253601 614.634644,671.426147 628.486389,677.066528 
	C644.825562,683.719604 661.047424,690.704163 674.880249,702.039673 
	C683.189453,708.848816 689.599365,717.067139 692.080017,727.710632 
	C697.177734,749.583862 692.198486,769.022888 676.900208,785.486389 
	C664.970520,798.324646 649.661560,805.624451 632.995667,809.966736 
	C592.730164,820.458069 552.674072,817.419861 513.069458,806.515442 
	C474.443481,795.880493 440.883575,776.184937 412.323914,747.971802 
	C401.402435,737.182800 387.148010,737.351501 376.348785,748.079468 
	C359.913727,764.405945 343.517517,780.772339 327.208832,797.224915 
	C316.038544,808.493713 316.251465,823.926636 327.605164,834.935791 
	C358.478149,864.871948 394.019897,887.608459 434.015808,903.298584 
	C446.505859,908.198364 459.307129,912.304871 472.286499,916.887634 
	C472.059631,918.304199 471.863159,919.933044 471.532501,921.534119 
	C467.360382,941.735229 462.957001,961.891357 459.045410,982.142639 
	C455.541138,1000.284973 466.401001,1013.343750 484.877045,1013.536011 
	C514.039062,1013.839478 543.202759,1014.003723 572.366089,1014.156372 
	C585.978394,1014.227600 595.264832,1006.554504 598.075928,993.088928 
	C601.951538,974.524963 606.111755,956.011597 609.477661,937.355286 
	C610.511169,931.627014 613.053650,930.410522 618.177124,930.039307 
	C651.912109,927.594971 684.692139,920.667786 716.105835,907.938354 
	C750.304077,894.080627 780.292603,874.195312 803.677307,845.254028 
	C830.626343,811.901733 843.252930,773.322693 844.633179,730.794250 
	C845.437256,706.017578 841.840637,682.003113 831.583191,659.231750 
	C818.593750,630.395142 797.391296,608.718140 771.773621,590.957581 
	C740.755188,569.452637 706.279236,555.028809 671.164307,541.875732 
	C643.312866,531.443298 615.444458,521.033264 587.843018,509.966400 
	C574.224548,504.506042 561.544922,497.012054 551.097595,486.373352 
	C529.411133,464.289734 530.636475,429.926697 553.835693,409.480652 
	C562.076355,402.218018 571.681946,397.328156 582.055298,393.923920 
	C614.638306,383.231171 647.706299,384.100006 680.790588,390.631927 
	C724.769348,399.314789 763.978027,418.056396 797.847046,447.694916 
	C808.794495,457.274963 822.131226,456.505981 832.209900,446.066986 
	C847.489380,430.241302 862.799622,414.442963 877.864014,398.414154 
	C880.505493,395.603607 882.821411,391.955353 883.879639,388.287689 
	C887.127136,377.032227 883.354614,367.695068 874.600708,360.213074 
	C840.990784,331.486664 803.463440,309.423889 762.002014,294.060272 
	C758.323914,292.697357 754.636719,291.358917 750.861572,289.975342 
	C755.787048,266.200897 760.626038,242.925079 765.427307,219.641464 
	C768.849304,203.046387 757.863892,188.922302 741.021912,188.812988 
	C711.190552,188.619385 681.356567,188.663803 651.524536,188.804367 
	C638.533569,188.865555 629.591553,196.347702 626.841125,209.187424 
	C622.387207,229.979630 618.113464,250.810440 613.727722,271.796844 
	C612.238953,271.918243 610.932922,272.039062 609.624756,272.129333 
	C571.656738,274.748932 534.780090,282.066254 499.945709,297.937744 
	C468.782593,312.136444 441.971710,331.900757 422.021881,360.131287 
	C397.980835,394.151184 389.338318,432.460022 390.894531,473.540771 
	C392.325806,511.321869 404.766205,544.797913 429.966888,573.246704 
	C450.512756,596.440674 475.552246,613.839722 503.430695,626.606750 
	C530.445190,638.978210 558.380798,649.338196 586.634338,660.874023 
z"/>
<path fill="#000000" opacity="1.000000" stroke="none" 
	d="
M915.468628,1201.000000 
	C916.636963,1200.333252 918.252075,1199.146851 919.914246,1199.076660 
	C952.974365,1197.682983 985.491821,1192.862183 1017.396851,1184.017456 
	C1043.553467,1176.766235 1067.175049,1164.156860 1089.286865,1148.829346 
	C1106.442749,1136.937256 1121.370605,1122.387207 1135.037476,1106.545776 
	C1149.493774,1089.789307 1161.392456,1071.428955 1171.145386,1051.592407 
	C1180.151489,1033.275024 1186.011963,1013.938965 1189.922729,994.011353 
	C1192.346924,981.658508 1194.408203,969.203064 1195.891479,956.705688 
	C1197.403809,943.964539 1197.990967,931.114319 1199.051514,918.317505 
	C1199.123779,917.445679 1199.768311,916.621216 1200.573242,915.887329 
	C1201.000000,1010.927185 1201.000000,1105.854370 1201.000000,1201.000000 
	C1105.979248,1201.000000 1010.958252,1201.000000 915.468628,1201.000000 
z"/>
<path fill="#000000" opacity="1.000000" stroke="none" 
	d="
M0.999997,916.468628 
	C1.666649,917.633606 2.853862,919.245483 2.923084,920.904053 
	C4.302580,953.956055 9.119278,986.467896 17.985138,1018.354370 
	C25.902685,1046.830322 40.065887,1072.245850 57.546856,1095.724365 
	C65.992691,1107.067871 75.705803,1117.692017 86.051544,1127.349609 
	C106.913635,1146.823975 130.477432,1162.574463 156.628784,1174.264893 
	C176.122971,1182.979370 196.637970,1188.377930 217.580032,1191.852661 
	C234.071716,1194.588745 250.774490,1196.074585 267.400635,1197.965576 
	C272.640045,1198.561646 277.938812,1198.621582 283.200684,1199.047363 
	C284.237946,1199.131226 285.230499,1199.767212 286.121826,1200.574341 
	C191.072937,1201.000000 96.145874,1201.000000 1.000000,1201.000000 
	C1.000000,1106.312500 1.000000,1011.624939 0.999997,916.468628 
z"/>
<path fill="#000000" opacity="1.000000" stroke="none" 
	d="
M1201.000000,285.531342 
	C1200.333374,284.362732 1199.150146,282.748352 1199.076416,281.084808 
	C1197.612671,248.035065 1192.865112,215.506500 1184.018555,183.599991 
	C1176.120483,155.114197 1161.986328,129.680634 1144.459229,106.266129 
	C1131.415039,88.840271 1116.132690,73.332870 1098.670410,59.991058 
	C1076.890747,43.350620 1053.742432,29.102184 1027.516724,21.118595 
	C1008.991577,15.479180 989.867432,11.424412 970.748596,8.232536 
	C953.614624,5.372048 936.120972,4.671721 918.791931,2.959464 
	C917.750916,2.856609 916.761536,2.232236 915.874023,1.425267 
	C1010.927063,1.000000 1105.854126,1.000000 1201.000000,1.000000 
	C1201.000000,95.687447 1201.000000,190.375061 1201.000000,285.531342 
z"/>
<path fill="#000000" opacity="1.000000" stroke="none" 
	d="
M285.531342,0.999997 
	C285.033386,1.665701 284.083160,2.886561 283.097717,2.915711 
	C260.051941,3.597398 237.339920,6.773505 214.651688,10.809479 
	C187.006119,15.727314 160.668442,24.090639 136.268631,37.994625 
	C119.718475,47.425556 104.378693,58.535431 90.017242,71.220154 
	C68.917000,89.856911 52.039635,111.734955 38.130905,135.905273 
	C26.831465,155.541183 18.493702,176.569702 14.081761,198.896652 
	C11.010571,214.438660 8.250319,230.067490 6.119922,245.761871 
	C4.461487,257.979370 4.007073,270.359344 2.948927,282.661194 
	C2.873984,283.532501 2.232996,284.355133 1.427607,285.100189 
	C1.000000,190.406143 1.000000,95.812286 1.000000,1.000000 
	C95.687447,1.000000 190.375061,1.000000 285.531342,0.999997 
z"/>
<path fill="#FFFFFF" opacity="1.000000" stroke="none" 
	d="
M586.273132,660.727783 
	C558.380798,649.338196 530.445190,638.978210 503.430695,626.606750 
	C475.552246,613.839722 450.512756,596.440674 429.966888,573.246704 
	C404.766205,544.797913 392.325806,511.321869 390.894531,473.540771 
	C389.338318,432.460022 397.980835,394.151184 422.021881,360.131287 
	C441.971710,331.900757 468.782593,312.136444 499.945709,297.937744 
	C534.780090,282.066254 571.656738,274.748932 609.624756,272.129333 
	C610.932922,272.039062 612.238953,271.918243 613.727722,271.796844 
	C618.113464,250.810440 622.387207,229.979630 626.841125,209.187424 
	C629.591553,196.347702 638.533569,188.865555 651.524536,188.804367 
	C681.356567,188.663803 711.190552,188.619385 741.021912,188.812988 
	C757.863892,188.922302 768.849304,203.046387 765.427307,219.641464 
	C760.626038,242.925079 755.787048,266.200897 750.861572,289.975342 
	C754.636719,291.358917 758.323914,292.697357 762.002014,294.060272 
	C803.463440,309.423889 840.990784,331.486664 874.600708,360.213074 
	C883.354614,367.695068 887.127136,377.032227 883.879639,388.287689 
	C882.821411,391.955353 880.505493,395.603607 877.864014,398.414154 
	C862.799622,414.442963 847.489380,430.241302 832.209900,446.066986 
	C822.131226,456.505981 808.794495,457.274963 797.847046,447.694916 
	C763.978027,418.056396 724.769348,399.314789 680.790588,390.631927 
	C647.706299,384.100006 614.638306,383.231171 582.055298,393.923920 
	C571.681946,397.328156 562.076355,402.218018 553.835693,409.480652 
	C530.636475,429.926697 529.411133,464.289734 551.097595,486.373352 
	C561.544922,497.012054 574.224548,504.506042 587.843018,509.966400 
	C615.444458,521.033264 643.312866,531.443298 671.164307,541.875732 
	C706.279236,555.028809 740.755188,569.452637 771.773621,590.957581 
	C797.391296,608.718140 818.593750,630.395142 831.583191,659.231750 
	C841.840637,682.003113 845.437256,706.017578 844.633179,730.794250 
	C843.252930,773.322693 830.626343,811.901733 803.677307,845.254028 
	C780.292603,874.195312 750.304077,894.080627 716.105835,907.938354 
	C684.692139,920.667786 651.912109,927.594971 618.177124,930.039307 
	C613.053650,930.410522 610.511169,931.627014 609.477661,937.355286 
	C606.111755,956.011597 601.951538,974.524963 598.075928,993.088928 
	C595.264832,1006.554504 585.978394,1014.227600 572.366089,1014.156372 
	C543.202759,1014.003723 514.039062,1013.839478 484.877045,1013.536011 
	C466.401001,1013.343750 455.541138,1000.284973 459.045410,982.142639 
	C462.957001,961.891357 467.360382,941.735229 471.532501,921.534119 
	C471.863159,919.933044 472.059631,918.304199 472.286499,916.887634 
	C459.307129,912.304871 446.505859,908.198364 434.015808,903.298584 
	C394.019897,887.608459 358.478149,864.871948 327.605164,834.935791 
	C316.251465,823.926636 316.038544,808.493713 327.208832,797.224915 
	C343.517517,780.772339 359.913727,764.405945 376.348785,748.079468 
	C387.148010,737.351501 401.402435,737.182800 412.323914,747.971802 
	C440.883575,776.184937 474.443481,795.880493 513.069458,806.515442 
	C552.674072,817.419861 592.730164,820.458069 632.995667,809.966736 
	C649.661560,805.624451 664.970520,798.324646 676.900208,785.486389 
	C692.198486,769.022888 697.177734,749.583862 692.080017,727.710632 
	C689.599365,717.067139 683.189453,708.848816 674.880249,702.039673 
	C661.047424,690.704163 644.825562,683.719604 628.486389,677.066528 
	C614.634644,671.426147 600.592346,666.253601 586.273132,660.727783 
z"/>
</svg>